<svg width="24" height="24" viewBox="0 0 24 24" fill="none" xmlns="http://www.w3.org/2000/svg"><g clip-path="url(#clip0_10_44)"><rect width="24" height="24" rx="4" fill="white"/><path d="M6.64904 7.54545H9.17887V14.027C9.17579 14.6425 9.02037 15.1842 8.71261 15.652C8.40792 16.1167 7.98628 16.4799 7.44769 16.7415C6.91218 17 6.29511 17.1293 5.59648 17.1293C4.99019 17.1293 4.43621 17.0246 3.93455 16.8153C3.4329 16.603 3.0328 16.2706 2.73427 15.8182C2.43574 15.3627 2.28801 14.7718 2.29109 14.0455H4.85785C4.86708 14.2824 4.90709 14.4825 4.97788 14.6456C5.05174 14.8087 5.1533 14.9318 5.28256 15.0149C5.4149 15.0949 5.57494 15.1349 5.76268 15.1349C5.95349 15.1349 6.11353 15.0934 6.24279 15.0103C6.37513 14.9272 6.47515 14.8041 6.54286 14.641C6.61057 14.4748 6.64596 14.2701 6.64904 14.027V7.54545ZM15.4919 10.5C15.4673 10.1922 15.3519 9.95218 15.1457 9.77983C14.9425 9.60748 14.6332 9.52131 14.2178 9.52131C13.9531 9.52131 13.7361 9.55362 13.5668 9.61825C13.4006 9.67981 13.2775 9.76444 13.1975 9.87216C13.1175 9.97988 13.0759 10.103 13.0729 10.2415C13.0667 10.3554 13.0867 10.4585 13.1329 10.5508C13.1821 10.64 13.2591 10.7216 13.3637 10.7955C13.4683 10.8662 13.6022 10.9309 13.7653 10.9893C13.9285 11.0478 14.1223 11.1001 14.347 11.1463L15.1226 11.3125C15.6458 11.4233 16.0936 11.5695 16.466 11.7511C16.8384 11.9326 17.1431 12.1465 17.38 12.3928C17.617 12.6359 17.7909 12.9098 17.9017 13.2145C18.0156 13.5192 18.0741 13.8516 18.0771 14.2116C18.0741 14.8333 17.9186 15.3596 17.6109 15.7905C17.3031 16.2214 16.863 16.5491 16.2906 16.7738C15.7212 16.9985 15.0364 17.1108 14.2362 17.1108C13.4145 17.1108 12.6974 16.9892 12.0849 16.7461C11.4756 16.503 11.0016 16.129 10.6631 15.6243C10.3276 15.1165 10.1583 14.4671 10.1553 13.6761H12.5928C12.6081 13.9654 12.6805 14.2086 12.8097 14.4055C12.939 14.6025 13.1206 14.7518 13.3545 14.8533C13.5915 14.9549 13.8731 15.0057 14.1993 15.0057C14.4732 15.0057 14.7025 14.9718 14.8871 14.9041C15.0718 14.8364 15.2118 14.7425 15.3072 14.6225C15.4027 14.5025 15.4519 14.3655 15.455 14.2116C15.4519 14.067 15.4042 13.9408 15.3119 13.8331C15.2226 13.7223 15.0749 13.6238 14.8687 13.5376C14.6625 13.4484 14.3839 13.3653 14.0331 13.2884L13.0913 13.0852C12.2542 12.9036 11.5941 12.6005 11.1109 12.1758C10.6308 11.748 10.3922 11.1648 10.3953 10.4261C10.3922 9.82599 10.5523 9.30125 10.8754 8.85192C11.2017 8.3995 11.6525 8.04711 12.2281 7.79474C12.8067 7.54238 13.4699 7.41619 14.2178 7.41619C14.981 7.41619 15.6412 7.54392 16.1982 7.79936C16.7553 8.05481 17.1846 8.41489 17.4862 8.87962C17.7909 9.34126 17.9448 9.88139 17.9479 10.5H15.4919ZM19.8254 17.1477C19.4684 17.1477 19.1622 17.0231 18.9067 16.7738C18.6543 16.5214 18.5297 16.2152 18.5328 15.8551C18.5297 15.5043 18.6543 15.2042 18.9067 14.9549C19.1622 14.7056 19.4684 14.581 19.8254 14.581C20.1639 14.581 20.4625 14.7056 20.721 14.9549C20.9826 15.2042 21.1149 15.5043 21.118 15.8551C21.1149 16.0952 21.0518 16.3137 20.9287 16.5107C20.8087 16.7045 20.6517 16.86 20.4578 16.9769C20.264 17.0908 20.0531 17.1477 19.8254 17.1477Z" fill="black"/></g><defs><clipPath id="clip0_10_44"><rect width="24" height="24" fill="white"/></clipPath></defs></svg>