<svg width="48" height="48" viewBox="0 0 48 48" fill="none" xmlns="http://www.w3.org/2000/svg">
<g clip-path="url(#clip0_10_44)">
<rect width="48" height="48" rx="12" fill="white"/>
<path d="M14.1213 15.5455H18.7918V27.5114C18.7861 28.6477 18.4991 29.6477 17.931 30.5114C17.3685 31.3693 16.5901 32.0398 15.5957 32.5227C14.6071 33 13.4679 33.2386 12.1781 33.2386C11.0588 33.2386 10.0361 33.0455 9.10994 32.6591C8.18381 32.267 7.44517 31.6534 6.89403 30.8182C6.3429 29.9773 6.07017 28.8864 6.07585 27.5455H10.8145C10.8315 27.983 10.9054 28.3523 11.0361 28.6534C11.1724 28.9545 11.3599 29.1818 11.5986 29.3352C11.8429 29.483 12.1384 29.5568 12.4849 29.5568C12.8372 29.5568 13.1327 29.4801 13.3713 29.3267C13.6156 29.1733 13.8003 28.946 13.9253 28.6449C14.0503 28.3381 14.1156 27.9602 14.1213 27.5114V15.5455ZM30.4466 21C30.4011 20.4318 30.1881 19.9886 29.8074 19.6705C29.4324 19.3523 28.8614 19.1932 28.0943 19.1932C27.6057 19.1932 27.2051 19.2528 26.8926 19.3722C26.5858 19.4858 26.3585 19.642 26.2108 19.8409C26.0631 20.0398 25.9864 20.267 25.9807 20.5227C25.9693 20.733 26.0063 20.9233 26.0915 21.0938C26.1824 21.2585 26.3244 21.4091 26.5176 21.5455C26.7108 21.6761 26.958 21.7955 27.2591 21.9034C27.5602 22.0114 27.9182 22.108 28.333 22.1932L29.7648 22.5C30.7307 22.7045 31.5574 22.9744 32.2449 23.3097C32.9324 23.6449 33.4949 24.0398 33.9324 24.4943C34.3699 24.9432 34.6909 25.4489 34.8955 26.0114C35.1057 26.5739 35.2136 27.1875 35.2193 27.8523C35.2136 29 34.9267 29.9716 34.3585 30.767C33.7903 31.5625 32.9778 32.1676 31.921 32.5824C30.8699 32.9972 29.6057 33.2045 28.1284 33.2045C26.6114 33.2045 25.2875 32.9801 24.1568 32.5312C23.0318 32.0824 22.1568 31.392 21.5318 30.4602C20.9125 29.5227 20.6 28.3239 20.5943 26.8636H25.0943C25.1227 27.3977 25.2563 27.8466 25.4949 28.2102C25.7335 28.5739 26.0688 28.8494 26.5006 29.0369C26.9381 29.2244 27.458 29.3182 28.0602 29.3182C28.5659 29.3182 28.9892 29.2557 29.3301 29.1307C29.671 29.0057 29.9295 28.8324 30.1057 28.6108C30.2818 28.3892 30.3727 28.1364 30.3784 27.8523C30.3727 27.5852 30.2847 27.3523 30.1142 27.1534C29.9494 26.9489 29.6767 26.767 29.296 26.608C28.9153 26.4432 28.4011 26.2898 27.7534 26.1477L26.0148 25.7727C24.4693 25.4375 23.2506 24.8778 22.3585 24.0938C21.4722 23.304 21.0318 22.2273 21.0375 20.8636C21.0318 19.7557 21.3273 18.7869 21.9239 17.9574C22.5261 17.1222 23.3585 16.4716 24.421 16.0057C25.4892 15.5398 26.7136 15.3068 28.0943 15.3068C29.5034 15.3068 30.7222 15.5426 31.7506 16.0142C32.779 16.4858 33.5716 17.1506 34.1284 18.0085C34.6909 18.8608 34.975 19.858 34.9807 21H30.4466Z" fill="black"/>
<path d="M38.4469 33.2727C37.7878 33.2727 37.2224 33.0426 36.7509 32.5824C36.2849 32.1165 36.0548 31.5511 36.0605 30.8864C36.0548 30.2386 36.2849 29.6847 36.7509 29.2244C37.2224 28.7642 37.7878 28.5341 38.4469 28.5341C39.0719 28.5341 39.623 28.7642 40.1003 29.2244C40.5832 29.6847 40.8276 30.2386 40.8332 30.8864C40.8276 31.3295 40.7111 31.733 40.4838 32.0966C40.2622 32.4545 39.9724 32.7415 39.6145 32.9574C39.2565 33.1676 38.8673 33.2727 38.4469 33.2727Z" fill="#4F46E5"/>
</g>
<defs>
<clipPath id="clip0_10_44">
<rect width="48" height="48" fill="white"/>
</clipPath>
</defs>
</svg>
